<?xml version="1.0" standalone="no"?>
<!DOCTYPE svg PUBLIC "-//W3C//DTD SVG 20010904//EN"
 "http://www.w3.org/TR/2001/REC-SVG-20010904/DTD/svg10.dtd">
<svg version="1.0" xmlns="http://www.w3.org/2000/svg"
 width="600.000000pt" height="600.000000pt" viewBox="0 0 600.000000 600.000000"
 preserveAspectRatio="xMidYMid meet">
<metadata>
Created by potrace 1.11, written by Peter Selinger 2001-2013
</metadata>
<g transform="translate(0.000000,600.000000) scale(0.100000,-0.100000)"
fill="#000000" stroke="none">
<path d="M1333 5262 c-18 -3 -26 -16 -42 -70 -17 -59 -42 -156 -56 -217 -2
-11 -12 -47 -21 -80 -9 -33 -17 -67 -19 -75 -3 -12 -78 -312 -91 -360 -13 -50
-56 -218 -59 -233 -2 -9 -41 -162 -85 -340 -45 -177 -83 -329 -85 -337 -2 -8
-43 -168 -90 -355 -188 -740 -176 -687 -159 -706 8 -9 72 -59 142 -110 70 -52
134 -99 142 -106 8 -7 103 -78 210 -157 107 -80 206 -153 219 -163 363 -271
1172 -875 1369 -1022 144 -107 271 -199 282 -203 20 -7 79 33 395 267 188 140
339 250 375 275 19 13 37 27 40 30 3 3 210 156 460 340 452 332 602 443 948
698 99 73 182 138 185 145 2 7 -8 64 -23 127 -66 275 -93 389 -150 620 -33
135 -78 319 -100 410 -22 91 -67 275 -100 410 -33 135 -62 254 -64 265 -2 11
-9 38 -15 60 -6 22 -35 141 -65 265 -147 611 -147 609 -169 617 -21 7 -3326
12 -3374 5z m781 -673 c85 -29 135 -60 266 -168 210 -173 318 -233 478 -266
78 -16 227 -22 292 -11 188 32 282 84 480 266 113 104 142 126 205 155 78 36
133 47 230 48 228 0 411 -120 509 -335 19 -42 88 -314 120 -474 7 -31 95 -424
111 -489 7 -33 46 -204 85 -379 69 -307 71 -320 54 -333 -11 -7 -26 -19 -34
-26 -8 -7 -60 -46 -115 -87 -55 -41 -107 -80 -115 -87 -15 -12 -647 -490
-1035 -782 -121 -91 -222 -168 -225 -171 -3 -3 -96 -74 -208 -158 -128 -96
-209 -151 -218 -148 -9 3 -86 60 -172 126 -86 66 -269 206 -407 311 -137 105
-261 200 -275 210 -14 11 -266 204 -561 429 l-537 410 10 43 c5 23 11 49 13
57 2 8 22 92 45 185 23 94 52 215 65 270 13 55 38 159 55 230 18 72 33 137 35
145 2 8 8 33 14 55 5 22 13 55 16 74 3 19 8 37 10 41 2 3 6 17 8 31 3 13 14
60 25 104 12 44 23 91 26 105 13 71 50 210 68 258 76 203 246 354 425 378 26
3 49 7 51 9 10 9 157 -10 206 -26z"/>
<path d="M1980 4148 c-332 -56 -496 -436 -310 -716 88 -131 223 -202 385 -202
265 1 474 222 460 487 -15 271 -269 476 -535 431z"/>
<path d="M3880 4146 c-219 -36 -382 -231 -382 -456 0 -207 132 -382 336 -445
45 -14 80 -16 152 -13 123 7 219 50 303 137 312 324 35 850 -409 777z"/>
<path d="M2385 2942 c-30 -3 -55 -25 -55 -47 0 -10 152 -220 170 -235 3 -3 26
-32 50 -65 25 -33 110 -145 190 -248 80 -104 155 -203 166 -220 12 -18 37 -50
56 -71 28 -32 39 -38 59 -33 16 5 67 64 154 178 72 94 217 284 323 422 115
150 192 260 192 273 0 47 8 47 -653 48 -342 1 -635 0 -652 -2z"/>
</g>
</svg>
