<?xml version="1.0" encoding="iso-8859-1"?>
<!-- Generator: Adobe Illustrator 19.0.0, SVG Export Plug-In . SVG Version: 6.00 Build 0)  -->
<svg version="1.1" id="Capa_1" xmlns="http://www.w3.org/2000/svg" xmlns:xlink="http://www.w3.org/1999/xlink" x="0px" y="0px"
	 viewBox="0 0 438.19 438.19" style="enable-background:new 0 0 438.19 438.19;" xml:space="preserve">
<g>
	<g>
		<path d="M219.079,42.662c-70.708,0-128,57.339-128,128.071v85.191c0,70.747,57.308,128.071,128,128.071
			c70.708,0,128-57.339,128-128.071v-85.191C347.079,99.986,289.771,42.662,219.079,42.662z M304.412,255.924
			c0,47.179-38.201,85.404-85.333,85.404c-47.129,0-85.333-38.222-85.333-85.404v-85.191c0-47.179,38.201-85.404,85.333-85.404
			c47.129,0,85.333,38.222,85.333,85.404V255.924z"/>
	</g>
</g>
<g>
	<g>
		<rect x="3.866" y="205.692" transform="matrix(0.963 -0.2693 0.2693 0.963 -59.1224 23.1272)" width="101.711" height="42.667"/>
	</g>
</g>
<g>
	<g>
		<rect x="362.135" y="176.17" transform="matrix(0.2693 -0.963 0.963 0.2693 61.5532 535.1793)" width="42.667" height="101.711"/>
	</g>
</g>
<g>
	<g>
		
			<rect x="327.49" y="307.476" transform="matrix(0.7071 -0.7071 0.7071 0.7071 -145.4745 349.2324)" width="42.667" height="85.488"/>
	</g>
</g>
<g>
	<g>
		
			<rect x="46.56" y="328.886" transform="matrix(0.7071 -0.7071 0.7071 0.7071 -221.4861 165.724)" width="85.488" height="42.667"/>
	</g>
</g>
<g>
	<g>
		
			<rect x="44.609" y="62.922" transform="matrix(0.5005 -0.8657 0.8657 0.5005 -60.4005 110.9344)" width="42.667" height="89.783"/>
	</g>
</g>
<g>
	<g>
		<rect x="327.633" y="86.48" transform="matrix(0.8657 -0.5005 0.5005 0.8657 -3.9392 200.945)" width="89.783" height="42.667"/>
	</g>
</g>
<g>
	<g>
		<path d="M326.699,109.715c-0.538,0.288-2.267,1.095-5.185,2.264c-5.3,2.123-11.79,4.289-19.474,6.341
			c-22.555,6.023-49.905,9.675-82.092,9.675c-32.211,0-59.856-3.658-82.884-9.699c-7.868-2.064-14.553-4.246-20.046-6.388
			c-3.05-1.189-4.886-2.021-5.498-2.336l-19.547,37.926c6.397,3.297,17.85,7.764,34.265,12.07
			c26.518,6.956,57.797,11.095,93.71,11.095c35.937,0,66.985-4.146,93.1-11.119c16.217-4.331,27.471-8.838,33.748-12.19
			L326.699,109.715z"/>
	</g>
</g>
<g>
	<g>
		<rect x="197.746" y="213.328" width="42.667" height="149.333"/>
	</g>
</g>
<g>
</g>
<g>
</g>
<g>
</g>
<g>
</g>
<g>
</g>
<g>
</g>
<g>
</g>
<g>
</g>
<g>
</g>
<g>
</g>
<g>
</g>
<g>
</g>
<g>
</g>
<g>
</g>
<g>
</g>
</svg>
