<?xml version="1.0" encoding="iso-8859-1"?>
<!-- Generator: Adobe Illustrator 19.0.0, SVG Export Plug-In . SVG Version: 6.00 Build 0)  -->
<svg version="1.1" id="Capa_1" xmlns="http://www.w3.org/2000/svg" xmlns:xlink="http://www.w3.org/1999/xlink" x="0px" y="0px"
	 viewBox="0 0 469.333 469.333" style="enable-background:new 0 0 469.333 469.333;" xml:space="preserve">
<g>
	<g>
		<path d="M266.667,256c-35.331,0-64,28.648-64,63.944v149.389h42.667V319.944c0-11.725,9.559-21.278,21.333-21.278
			c11.761,0,21.333,9.553,21.333,21.278v149.389h42.667V319.944C330.667,284.635,301.972,256,266.667,256z"/>
	</g>
</g>
<g>
	<g>
		<path d="M416,0v149.333h-42.667v320H416V192c23.546,0,42.667-19.075,42.667-42.603V0H416z"/>
	</g>
</g>
<g>
	<g>
		<path d="M53.333,149.333V0H10.667v149.397c0,23.528,19.12,42.603,42.667,42.603v277.333H96v-320H53.333z"/>
	</g>
</g>
<g>
	<g>
		<rect x="330.667" y="0" width="42.667" height="85.333"/>
	</g>
</g>
<g>
	<g>
		<rect x="224" y="0" width="42.667" height="85.333"/>
	</g>
</g>
<g>
	<g>
		<rect x="117.333" y="0" width="42.667" height="85.333"/>
	</g>
</g>
<g>
</g>
<g>
</g>
<g>
</g>
<g>
</g>
<g>
</g>
<g>
</g>
<g>
</g>
<g>
</g>
<g>
</g>
<g>
</g>
<g>
</g>
<g>
</g>
<g>
</g>
<g>
</g>
<g>
</g>
</svg>
