<?xml version="1.0" encoding="iso-8859-1"?>
<!-- Generator: Adobe Illustrator 19.0.0, SVG Export Plug-In . SVG Version: 6.00 Build 0)  -->
<svg version="1.1" id="Capa_1" xmlns="http://www.w3.org/2000/svg" xmlns:xlink="http://www.w3.org/1999/xlink" x="0px" y="0px"
	 viewBox="0 0 384 384" style="enable-background:new 0 0 384 384;" xml:space="preserve">
<g>
	<g>
		<path d="M198.219,192c0-82.695,58.815-151.653,136.896-167.326C307.278,8.964,275.128,0,240.886,0c-106.039,0-192,85.961-192,192
			s85.961,192,192,192c34.243,0,66.392-8.964,94.229-24.674C257.034,343.653,198.219,274.695,198.219,192z M91.552,192
			c0-73.377,52.922-134.393,122.679-146.961C177.686,83.531,155.552,135.484,155.552,192c0,56.516,22.134,108.469,58.679,146.961
			C144.474,326.393,91.552,265.377,91.552,192z"/>
	</g>
</g>
<g>
</g>
<g>
</g>
<g>
</g>
<g>
</g>
<g>
</g>
<g>
</g>
<g>
</g>
<g>
</g>
<g>
</g>
<g>
</g>
<g>
</g>
<g>
</g>
<g>
</g>
<g>
</g>
<g>
</g>
</svg>
