<?xml version="1.0" encoding="iso-8859-1"?>
<!-- Generator: Adobe Illustrator 19.0.0, SVG Export Plug-In . SVG Version: 6.00 Build 0)  -->
<svg version="1.1" id="Capa_1" xmlns="http://www.w3.org/2000/svg" xmlns:xlink="http://www.w3.org/1999/xlink" x="0px" y="0px"
	 viewBox="0 0 426.667 426.667" style="enable-background:new 0 0 426.667 426.667;" xml:space="preserve">
<g>
	<g>
		<path d="M341.333,234.667C341.333,317.141,274.474,384,192,384c-50.627,0-96.886-25.339-124.434-66.733
			c-16.161-24.284-24.9-52.737-24.9-82.601c0-82.474,66.859-149.333,149.333-149.333V42.667c-106.039,0-192,85.961-192,192
			c0,39.286,11.799,75.816,32.047,106.24c34.404,51.695,93.2,85.76,159.953,85.76c106.039,0,192-85.961,192-192H341.333z"/>
	</g>
</g>
<g>
	<g>
		<path d="M388.676,191.977c0.969,0,1.92,0,2.852,0c2.504,0,4.873,0,7.11,0.001c0.98,0,1.939,0,2.868,0
			c1.607,0,3.14,0.001,4.593,0.001c0.517,0,1.021,0,1.519,0c1.421,0,2.772,0.001,4.034,0.001c1.582,0.001,3.041,0.001,4.372,0.002
			c0.155,0,0.3,0,0.452,0c0.339,0,0.679,0,1.001,0.001c0.001,0,0.002,0,0.004,0c0.429,0,0.842,0.001,1.241,0.001
			c0.037,0,0.072,0,0.109,0c0.752,0.001,1.45,0.001,2.094,0.002c0.093,0,0.182,0,0.273,0c0.19,0,0.374,0,0.554,0.001
			c0.473,0,0.908,0.001,1.312,0.002c0.403,0.001,0.771,0.001,1.106,0.002c0.351,0.001,0.669,0.001,0.946,0.002
			c0.054,0,0.105,0,0.157,0c0.103,0,0.203,0.001,0.294,0.001c0.07,0,0.133,0,0.196,0.001c0.071,0,0.144,0,0.206,0.001
			c0.039,0,0.07,0,0.106,0c0.072,0,0.143,0.001,0.202,0.001c0.029,0,0.049,0,0.074,0c0.052,0,0.104,0.001,0.143,0.001
			c0.017,0,0.025,0,0.04,0c0.035,0,0.07,0.001,0.09,0.001c0.027,0,0.044,0.001,0.044,0.001c0-1.751-0.027-3.496-0.073-5.236
			c-0.015-0.571-0.045-1.138-0.065-1.707c-0.042-1.167-0.085-2.334-0.147-3.495c-0.036-0.678-0.085-1.352-0.128-2.027
			c-0.067-1.05-0.136-2.099-0.221-3.144c-0.057-0.714-0.125-1.424-0.19-2.136c-0.092-1.003-0.188-2.005-0.295-3.004
			c-0.078-0.726-0.162-1.45-0.249-2.174c-0.117-0.982-0.241-1.962-0.372-2.94c-0.097-0.722-0.197-1.442-0.302-2.162
			c-0.143-0.981-0.297-1.958-0.455-2.934c-0.114-0.704-0.228-1.409-0.35-2.111c-0.173-0.997-0.359-1.99-0.548-2.982
			c-0.127-0.67-0.251-1.342-0.385-2.01c-0.212-1.055-0.44-2.104-0.67-3.152c-0.107-0.487-0.201-0.979-0.311-1.465
			c-0.002,0-0.005,0-0.008,0C405.632,77.66,349.286,21.227,277.671,4.839c0-0.001,0-0.003,0-0.004
			c-0.411-0.094-0.827-0.174-1.239-0.265c-1.181-0.262-2.363-0.521-3.551-0.761c-0.625-0.126-1.255-0.24-1.882-0.361
			c-1.04-0.199-2.081-0.396-3.128-0.579c-0.685-0.119-1.372-0.229-2.059-0.341c-0.999-0.163-2-0.322-3.004-0.469
			c-0.711-0.104-1.425-0.203-2.139-0.299c-0.993-0.134-1.988-0.262-2.986-0.381c-0.719-0.086-1.439-0.169-2.16-0.247
			c-1.009-0.109-2.022-0.208-3.036-0.301c-0.711-0.065-1.422-0.132-2.135-0.19c-1.053-0.085-2.109-0.156-3.167-0.224
			c-0.676-0.044-1.351-0.092-2.03-0.129c-1.169-0.063-2.343-0.107-3.517-0.149c-0.571-0.02-1.139-0.05-1.711-0.065
			C238.179,0.027,236.426,0,234.667,0c0.012,0.002,0.024,0.019,0.036,0.05c0.004,0.01,0.008,0.03,0.012,0.044
			c0.008,0.027,0.016,0.054,0.024,0.095c0.005,0.024,0.009,0.057,0.013,0.086c0.007,0.044,0.014,0.087,0.021,0.142
			c0.005,0.037,0.009,0.083,0.014,0.125c0.006,0.06,0.013,0.119,0.019,0.189c0.005,0.052,0.009,0.112,0.014,0.17
			c0.006,0.075,0.012,0.15,0.018,0.235c0.005,0.067,0.009,0.141,0.014,0.214c0.005,0.087,0.011,0.176,0.016,0.272
			c0.005,0.085,0.009,0.176,0.014,0.268c0.005,0.103,0.011,0.208,0.016,0.319c0.004,0.092,0.008,0.189,0.013,0.288
			c0.005,0.126,0.011,0.257,0.016,0.393c0.004,0.101,0.008,0.205,0.012,0.311c0.005,0.147,0.011,0.299,0.016,0.456
			c0.004,0.113,0.008,0.227,0.011,0.346c0.005,0.158,0.01,0.323,0.015,0.49c0.004,0.132,0.008,0.265,0.011,0.403
			c0.005,0.179,0.01,0.366,0.014,0.555c0.003,0.135,0.007,0.27,0.01,0.41c0.005,0.205,0.01,0.419,0.014,0.635
			c0.003,0.141,0.006,0.279,0.009,0.424c0.005,0.236,0.01,0.483,0.014,0.731c0.003,0.141,0.005,0.277,0.008,0.422
			c0.005,0.255,0.009,0.522,0.014,0.788c0.003,0.153,0.005,0.302,0.008,0.459c0.005,0.339,0.011,0.69,0.016,1.047
			c0.001,0.089,0.003,0.172,0.004,0.262c0.006,0.396,0.011,0.807,0.016,1.225c0.001,0.075,0.002,0.144,0.003,0.22
			c0.012,0.968,0.023,1.996,0.034,3.081c0.002,0.232,0.004,0.475,0.007,0.713c0.003,0.332,0.006,0.661,0.009,1.003
			c0.002,0.196,0.003,0.4,0.005,0.599c0.003,0.396,0.007,0.794,0.01,1.204c0.002,0.2,0.003,0.406,0.004,0.608
			c0.003,0.415,0.006,0.832,0.009,1.26c0.002,0.249,0.003,0.504,0.005,0.758c0.002,0.363,0.005,0.729,0.007,1.102
			c0.002,0.327,0.004,0.66,0.005,0.994c0.002,0.368,0.004,0.737,0.006,1.114c0.001,0.27,0.003,0.544,0.004,0.819
			c0.002,0.458,0.004,0.921,0.006,1.391c0.001,0.249,0.002,0.5,0.003,0.752c0.002,0.49,0.004,0.987,0.006,1.491
			c0.001,0.271,0.002,0.543,0.003,0.818c0.001,0.448,0.003,0.904,0.004,1.363c0.001,0.35,0.002,0.701,0.003,1.057
			c0.001,0.47,0.002,0.947,0.003,1.427c0.001,0.32,0.001,0.639,0.002,0.964c0.001,0.504,0.002,1.018,0.003,1.533
			c0.001,0.33,0.001,0.657,0.002,0.991c0.001,0.539,0.002,1.09,0.002,1.641c0,0.333,0.001,0.661,0.001,0.998
			c0.001,0.478,0.001,0.968,0.001,1.455c0,0.431,0.001,0.858,0.001,1.297c0.021,31.889-0.19,81.718-0.632,149.495
			c15.011-0.004,29.129-0.007,42.38-0.01l0,0l0.288,0l0,0c46.354-0.01,81.923-0.014,106.697-0.014l0,0
			C385.606,191.977,387.161,191.977,388.676,191.977z M277.564,149.324c0.24-42.469,0.364-75.895,0.371-100.292
			c47.873,14.469,85.594,52.325,99.874,100.279C353.478,149.31,320.064,149.315,277.564,149.324z"/>
	</g>
</g>
<g>
</g>
<g>
</g>
<g>
</g>
<g>
</g>
<g>
</g>
<g>
</g>
<g>
</g>
<g>
</g>
<g>
</g>
<g>
</g>
<g>
</g>
<g>
</g>
<g>
</g>
<g>
</g>
<g>
</g>
</svg>
