<?xml version="1.0" encoding="utf-8"?>
<!-- Generator: Adobe Illustrator 23.0.4, SVG Export Plug-In . SVG Version: 6.00 Build 0)  -->
<svg version="1.1" id="Capa_1" xmlns="http://www.w3.org/2000/svg" xmlns:xlink="http://www.w3.org/1999/xlink" x="0px" y="0px"
	 viewBox="0 0 612.1 612.1" style="enable-background:new 0 0 612.1 612.1;" xml:space="preserve">
<path fill="#86CB17" d="M401.1,135.1l-0.3,0.4h135.5c61.1,0,66.8,36.2,66.8,47.7c0,13.3-3.7,24.7-15.2,36.2l-232.7,250c-1.9,1.9-1.9,3.9-3.9,3.9
	c-23,19.1-63.1,28.6-99.3-11.5L28.6,223.3c-11.5-11.5-17.1-24.7-17.1-38.2c0-11.5,3.9-49.6,66.8-49.6h133.6l-0.3-0.4H401.1z
	 M110.8,205.9l192.6,206c1.9,1.9,1.9,3.9,3.9,3.9l198.6-209.9H110.8z"/>
</svg>
