<?xml version="1.0" encoding="iso-8859-1"?>
<!-- Generator: Adobe Illustrator 19.0.0, SVG Export Plug-In . SVG Version: 6.00 Build 0)  -->
<svg version="1.1" id="Capa_1" xmlns="http://www.w3.org/2000/svg" xmlns:xlink="http://www.w3.org/1999/xlink" x="0px" y="0px"
	 viewBox="0 0 384 384" style="enable-background:new 0 0 384 384;" xml:space="preserve">
<g>
	<g>
		<path fill="#ea2525" d="M192,0C86,0,0,86,0,192s86,192,192,192s192-86,192-192S298,0,192,0z M192,341.3c-82.5,0-149.3-66.8-149.3-149.3
			S109.5,42.7,192,42.7S341.3,109.6,341.3,192S274.5,341.3,192,341.3z"/>
	</g>
</g>
<g>
	<g>
		<polygon fill="#ea2525" points="267.4,146.7 237.3,116.6 192,161.8 146.7,116.6 116.6,146.7 161.8,192 116.6,237.3 146.7,267.4 192,222.2
			237.3,267.4 267.4,237.3 222.2,192 		"/>
	</g>
</g>
<g>
</g>
<g>
</g>
<g>
</g>
<g>
</g>
<g>
</g>
<g>
</g>
<g>
</g>
<g>
</g>
<g>
</g>
<g>
</g>
<g>
</g>
<g>
</g>
<g>
</g>
<g>
</g>
<g>
</g>
</svg>
