<?xml version="1.0" encoding="iso-8859-1"?>
<!-- Generator: Adobe Illustrator 19.0.0, SVG Export Plug-In . SVG Version: 6.00 Build 0)  -->
<svg version="1.1" id="Capa_1" xmlns="http://www.w3.org/2000/svg" xmlns:xlink="http://www.w3.org/1999/xlink" x="0px" y="0px"
	 viewBox="0 0 512 512" style="enable-background:new 0 0 512 512;" xml:space="preserve">
<g>
	<g>
		<path fill="#fff" d="M212.827,0c-47.029,0-85.333,38.165-85.333,85.237v42.869c0,47.093,38.208,85.237,85.333,85.237
			c47.029,0,85.333-38.165,85.333-85.237V85.237C298.16,38.144,259.963,0,212.827,0z M255.493,128.107
			c0,23.456-19.147,42.571-42.667,42.571c-23.584,0-42.667-19.061-42.667-42.571V85.237c0-23.456,19.147-42.571,42.667-42.571
			c23.584,0,42.667,19.061,42.667,42.571V128.107z"/>
	</g>
</g>
<g>
	<g>
		<path fill="#fff" d="M340.827,256c-9.451,0-18.624,1.099-27.488,3.04c0.427-0.096,0.821-0.256,1.248-0.341
			c-8.651-3.029-17.707-6.048-26.88-8.885c-7.787-2.421-15.349-4.619-22.624-6.539c-20.704-5.504-37.856-8.608-51.168-8.608
			c-13.333,0-30.219,2.955-50.368,8.224c-7.68,2.005-15.701,4.309-23.947,6.869c-10.283,3.189-20.427,6.592-29.984,9.995
			c-3.349,1.195-6.4,2.304-9.077,3.307c-1.632,0.608-2.805,1.056-3.456,1.301c-30.101,10.464-53.909,44.192-53.909,76.843v64.128
			H85.84v-64.128c0-14.549,12.373-32.085,25.931-36.8c1.152-0.427,2.165-0.821,3.648-1.365c2.507-0.939,5.355-1.984,8.512-3.104
			c9.035-3.211,18.613-6.443,28.288-9.429c7.669-2.379,15.072-4.512,22.091-6.347c16.917-4.405,30.741-6.827,39.605-6.827
			c8.715,0,22.827,2.549,40.224,7.168c1.525,0.416,3.061,0.832,4.629,1.259c0.096-0.085,0.213-0.149,0.299-0.224
			c-28.235,23.477-46.24,58.869-46.24,98.464c0,70.688,57.301,128,128,128c70.699,0,128-57.312,128-128S411.525,256,340.827,256z
			 M340.827,469.333c-47.136,0-85.333-38.208-85.333-85.333c0-47.125,38.197-85.333,85.333-85.333
			c47.136,0,85.333,38.208,85.333,85.333C426.16,431.125,387.963,469.333,340.827,469.333z"/>
	</g>
</g>
<g>
	<g>
		<rect fill="#fff" x="319.493" y="320" width="42.667" height="128"/>
	</g>
</g>
<g>
	<g>
		<rect fill="#fff" x="276.827" y="362.667" width="128" height="42.667"/>
	</g>
</g>
<g>
</g>
<g>
</g>
<g>
</g>
<g>
</g>
<g>
</g>
<g>
</g>
<g>
</g>
<g>
</g>
<g>
</g>
<g>
</g>
<g>
</g>
<g>
</g>
<g>
</g>
<g>
</g>
<g>
</g>
</svg>
