<?xml version="1.0" encoding="iso-8859-1"?>
<!-- Generator: Adobe Illustrator 19.0.0, SVG Export Plug-In . SVG Version: 6.00 Build 0)  -->
<svg version="1.1" id="Capa_1" xmlns="http://www.w3.org/2000/svg" xmlns:xlink="http://www.w3.org/1999/xlink" x="0px" y="0px"
	 viewBox="0 0 385.034 385.034" style="enable-background:new 0 0 385.034 385.034;" xml:space="preserve">
<g>
	<g>
		<path d="M351.566,54.016c-4.579-19.216-21.75-32.776-41.504-32.776h-0.728v42.667h0.728l32.306,135.564v121.656H42.667V204.978
			l32-130.37V21.32c-18.529,1.134-34.337,14.191-38.81,32.416L0,199.818v121.309c0,23.564,19.103,42.667,42.667,42.667h299.701
			c23.564,0,42.667-19.103,42.667-42.667v-126.67L351.566,54.016z"/>
	</g>
</g>
<g>
	<g>
		<path d="M213.333,191.907v21.333c0,11.782-9.551,21.333-21.333,21.333s-21.333-9.551-21.333-21.333v-21.333H20.055v42.667h111.587
			c8.786,24.857,32.492,42.667,60.358,42.667s51.572-17.809,60.358-42.667h113.514v-42.667H213.333z"/>
	</g>
</g>
<g>
	<g>
		<rect x="85.333" y="106.574" width="213.333" height="42.667"/>
	</g>
</g>
<g>
	<g>
		<rect x="106.667" y="42.574" width="170.667" height="42.667"/>
	</g>
</g>
<g>
</g>
<g>
</g>
<g>
</g>
<g>
</g>
<g>
</g>
<g>
</g>
<g>
</g>
<g>
</g>
<g>
</g>
<g>
</g>
<g>
</g>
<g>
</g>
<g>
</g>
<g>
</g>
<g>
</g>
</svg>
