<?xml version="1.0" encoding="iso-8859-1"?>
<!-- Generator: Adobe Illustrator 19.0.0, SVG Export Plug-In . SVG Version: 6.00 Build 0)  -->
<svg version="1.1" id="Capa_1" xmlns="http://www.w3.org/2000/svg" xmlns:xlink="http://www.w3.org/1999/xlink" x="0px" y="0px"
	 viewBox="0 0 469.333 469.333" style="enable-background:new 0 0 469.333 469.333;" xml:space="preserve">
<g>
	<g>
		<g>
			<path d="M362.621,426.667c-170.633,0.002-255.951,0.006-255.955,0.012C106.681,312.893,106.696,256,106.712,256
				c60.481-0.001,110.244-0.002,149.288-0.003v-42.664H106.712C83.083,213.333,64,232.388,64,255.894v170.879
				c0,23.528,19.123,42.561,42.712,42.561h255.909c23.629,0,42.712-19.055,42.712-42.561V298.667h-42.672
				C362.649,384,362.635,426.667,362.621,426.667z"/>
			<path d="M362.621,213.333h-63.955v42.662c42.665-0.002,63.998-0.005,64,0.005h42.667v-0.106
				C405.333,232.366,386.21,213.333,362.621,213.333z"/>
		</g>
	</g>
</g>
<g>
	<g>
		<path d="M405.333,128H64c-23.505,0-42.667,19.083-42.667,42.622v42.756C21.333,236.837,40.436,256,64,256h192v-42.656
			c-128,0.011-192,0.022-192,0.034c0.002-28.477,0.005-42.714,0.006-42.711c227.551-0.013,341.327-0.028,341.327-0.044
			c-0.002,28.477-0.005,42.714-0.006,42.711c-38.874,0.002-74.427,0.005-106.66,0.007V256h106.666
			C428.838,256,448,236.917,448,213.378v-42.756C448,147.163,428.897,128,405.333,128z"/>
	</g>
</g>
<g>
	<g>
		<path d="M170.667,0c-47.128,0-85.333,38.205-85.333,85.333s38.205,85.333,85.333,85.333S256,132.462,256,85.333
			S217.795,0,170.667,0z M170.667,128C147.102,128,128,108.897,128,85.333s19.103-42.667,42.667-42.667s42.667,19.103,42.667,42.667
			S194.231,128,170.667,128z"/>
	</g>
</g>
<g>
	<g>
		<path d="M298.667,0c-47.128,0-85.333,38.205-85.333,85.333s38.205,85.333,85.333,85.333S384,132.462,384,85.333
			S345.795,0,298.667,0z M298.667,128C275.102,128,256,108.897,256,85.333s19.103-42.667,42.667-42.667
			c23.564,0,42.667,19.103,42.667,42.667S322.231,128,298.667,128z"/>
	</g>
</g>
<g>
	<g>
		<rect x="213.333" y="149.333" width="42.667" height="292.06"/>
	</g>
</g>
<g>
</g>
<g>
</g>
<g>
</g>
<g>
</g>
<g>
</g>
<g>
</g>
<g>
</g>
<g>
</g>
<g>
</g>
<g>
</g>
<g>
</g>
<g>
</g>
<g>
</g>
<g>
</g>
<g>
</g>
</svg>
