<?xml version="1.0" encoding="iso-8859-1"?>
<!-- Generator: Adobe Illustrator 19.0.0, SVG Export Plug-In . SVG Version: 6.00 Build 0)  -->
<svg version="1.1" id="Capa_1" xmlns="http://www.w3.org/2000/svg" xmlns:xlink="http://www.w3.org/1999/xlink" x="0px" y="0px"
	 viewBox="0 0 512 512" style="enable-background:new 0 0 512 512;" xml:space="preserve">
<g>
	<g>
		<path d="M277.333,384v63.896c0,11.897-9.529,21.438-21.333,21.438c-11.743,0-21.333-9.607-21.333-21.438V384H192v63.896
			C192,483.275,220.677,512,256,512c35.379,0,64-28.654,64-64.104V384H277.333z"/>
	</g>
</g>
<g>
	<g>
		<path d="M256,0c-70.708,0-128,57.339-128,128.071v170.55c0,23.629,19.055,42.712,42.561,42.712h170.879
			c23.528,0,42.561-19.123,42.561-42.712v-170.55C384,57.324,326.692,0,256,0z M170.667,298.621v-170.55
			c0-47.179,38.201-85.404,85.333-85.404c47.129,0,85.333,38.222,85.333,85.404c0.002,113.727,0.006,170.592,0.012,170.596
			C227.56,298.653,170.667,298.638,170.667,298.621z"/>
	</g>
</g>
<g>
	<g>
		<path d="M265.72,151.834c-34.923-17.874-59.565-24.18-116.386-24.18v42.667c49.846,0,67.87,4.613,96.947,19.494
			c34.923,17.874,59.565,24.18,116.386,24.18v-42.667C312.821,171.328,294.797,166.716,265.72,151.834z"/>
	</g>
</g>
<g>
</g>
<g>
</g>
<g>
</g>
<g>
</g>
<g>
</g>
<g>
</g>
<g>
</g>
<g>
</g>
<g>
</g>
<g>
</g>
<g>
</g>
<g>
</g>
<g>
</g>
<g>
</g>
<g>
</g>
</svg>
