<?xml version="1.0" encoding="iso-8859-1"?>
<!-- Generator: Adobe Illustrator 19.0.0, SVG Export Plug-In . SVG Version: 6.00 Build 0)  -->
<svg version="1.1" id="Capa_1" xmlns="http://www.w3.org/2000/svg" xmlns:xlink="http://www.w3.org/1999/xlink" x="0px" y="0px"
	 viewBox="0 0 469.333 469.333" style="enable-background:new 0 0 469.333 469.333;" xml:space="preserve">
<g>
	<g>
		<path d="M426.667,42.667h-384C19.103,42.667,0,61.769,0,85.333V384c0,23.564,19.103,42.667,42.667,42.667h384
			c23.564,0,42.667-19.103,42.667-42.667V85.333C469.333,61.769,450.231,42.667,426.667,42.667z M426.667,384h-384V85.333h384V384z"
			/>
	</g>
</g>
<g>
	<g>
		<polygon points="272.257,230.4 213.99,256 152.934,128 83.267,341.333 128.151,341.333 160.366,242.685 193.286,311.699 
			256.425,283.959 294.181,341.333 345.257,341.333 		"/>
	</g>
</g>
<g>
	<g>
		<circle cx="341.333" cy="170.667" r="42.667"/>
	</g>
</g>
<g>
</g>
<g>
</g>
<g>
</g>
<g>
</g>
<g>
</g>
<g>
</g>
<g>
</g>
<g>
</g>
<g>
</g>
<g>
</g>
<g>
</g>
<g>
</g>
<g>
</g>
<g>
</g>
<g>
</g>
</svg>
