<?xml version="1.0" encoding="iso-8859-1"?>
<!-- Generator: Adobe Illustrator 19.0.0, SVG Export Plug-In . SVG Version: 6.00 Build 0)  -->
<svg version="1.1" id="Capa_1" xmlns="http://www.w3.org/2000/svg" xmlns:xlink="http://www.w3.org/1999/xlink" x="0px" y="0px"
	 viewBox="0 0 448 448" style="enable-background:new 0 0 448 448;" xml:space="preserve">
<g>
	<g>
		<path d="M224,0C133.359,0,74.667,65.978,74.667,149.333c0,33.443,11.93,56.515,37.377,85.996c1.808,2.095,7.786,8.923,8.032,9.205
			c2.945,3.382,5.081,5.903,7.007,8.293c8.593,10.662,11.969,17.703,11.969,24.506v42.574c0,25.004,21.278,42.97,45.918,38.871
			l85.514-14.226c21.966-3.654,38.917-23.653,38.917-45.885v-21.333c0-6.828,3.349-13.849,11.882-24.486
			c1.911-2.382,4.029-4.893,6.957-8.273c0.142-0.164,6.168-7.081,7.98-9.191c25.256-29.416,37.114-52.535,37.114-86.05
			C373.333,65.811,314.71,0,224,0z M303.848,207.589c-1.693,1.972-7.625,8.781-7.855,9.047c-3.25,3.752-5.681,6.634-7.99,9.512
			c-14.041,17.502-21.268,32.654-21.268,51.185v21.333c0,1.368-1.863,3.566-3.252,3.797l-81.764,13.602v-38.733
			c0-18.559-7.281-33.742-21.416-51.28c-2.327-2.887-4.778-5.78-8.046-9.534c-0.333-0.383-6.224-7.111-7.915-9.07
			c-19.379-22.451-27.009-37.206-27.009-58.117c0-60.831,40.774-106.667,106.667-106.667c65.976,0,106.667,45.68,106.667,106.667
			C330.667,170.397,323.079,185.19,303.848,207.589z"/>
	</g>
</g>
<g>
	<g>
		<polygon points="160,405.333 160,448 287.544,425.635 287.544,382.969 		"/>
	</g>
</g>
<g>
</g>
<g>
</g>
<g>
</g>
<g>
</g>
<g>
</g>
<g>
</g>
<g>
</g>
<g>
</g>
<g>
</g>
<g>
</g>
<g>
</g>
<g>
</g>
<g>
</g>
<g>
</g>
<g>
</g>
</svg>
