<?xml version="1.0" encoding="iso-8859-1"?>
<!-- Generator: Adobe Illustrator 19.0.0, SVG Export Plug-In . SVG Version: 6.00 Build 0)  -->
<svg version="1.1" id="Capa_1" xmlns="http://www.w3.org/2000/svg" xmlns:xlink="http://www.w3.org/1999/xlink" x="0px" y="0px"
	 viewBox="0 0 341.3 341.3" style="enable-background:new 0 0 341.3 341.3;" xml:space="preserve">
<g>
	<g>
		<path d="M317.15,46.181c-32.1-33.3-84.4-33.3-116.6,0l-0.9,1l-29,31.4l-29.9-30.7c-32.3-33.4-84.4-33.3-116.6,0
			c-32.2,33.2-32.2,87.4,0,120.7l118.6,138.1c15.4,17.9,40.2,17.9,55.5-0.1l118.9-139.7C349.35,133.481,349.35,79.481,317.15,46.181
			z M286.35,137.281l-0.9,1l-115,135.2l-114.8-133.7l-0.9-0.9c-16.2-16.8-16.2-44.7,0-61.4c15.4-16,39.7-16,55.2,0l30.1,30.9
			l31.4,32.2l60.3-65.3c14.8-15.3,39.2-15.3,54.6,0.6C302.65,92.681,302.65,120.381,286.35,137.281z"/>
	</g>
</g>
<g>
</g>
<g>
</g>
<g>
</g>
<g>
</g>
<g>
</g>
<g>
</g>
<g>
</g>
<g>
</g>
<g>
</g>
<g>
</g>
<g>
</g>
<g>
</g>
<g>
</g>
<g>
</g>
<g>
</g>
</svg>
