<?xml version="1.0" encoding="iso-8859-1"?>
<!-- Generator: Adobe Illustrator 19.0.0, SVG Export Plug-In . SVG Version: 6.00 Build 0)  -->
<svg version="1.1" id="Capa_1" xmlns="http://www.w3.org/2000/svg" xmlns:xlink="http://www.w3.org/1999/xlink" x="0px" y="0px"
	 viewBox="0 0 426.669 426.669" style="enable-background:new 0 0 426.669 426.669;" xml:space="preserve">
<g>
	<g>
		<path d="M213.335,0C119.084,0,42.668,76.416,42.668,170.667c0,128,154.453,250.251,154.453,250.251
			c8.96,7.627,23.552,7.712,32.427,0c0,0,154.453-122.251,154.453-250.251C384.001,76.416,307.585,0,213.335,0z M224.631,368.565
			c-3.979,3.701-7.765,7.115-11.296,10.208c-3.531-3.093-7.307-6.507-11.296-10.208c-16.832-15.648-33.675-33.163-49.301-52.011
			c-42.517-51.264-67.403-101.899-67.403-145.888c0-70.688,57.312-128,128-128s128,57.312,128,128
			c0,43.989-24.896,94.624-67.403,145.888C258.305,335.403,241.463,352.917,224.631,368.565z"/>
	</g>
</g>
<g>
	<g>
		<path d="M213.335,85.333c-47.125,0-85.333,38.208-85.333,85.333c0,47.125,38.208,85.333,85.333,85.333
			s85.333-38.208,85.333-85.333C298.668,123.541,260.46,85.333,213.335,85.333z M213.335,213.333
			c-23.563,0-42.667-19.104-42.667-42.667c0-23.563,19.104-42.667,42.667-42.667s42.667,19.104,42.667,42.667
			C256.001,194.229,236.897,213.333,213.335,213.333z"/>
	</g>
</g>
<g>
</g>
<g>
</g>
<g>
</g>
<g>
</g>
<g>
</g>
<g>
</g>
<g>
</g>
<g>
</g>
<g>
</g>
<g>
</g>
<g>
</g>
<g>
</g>
<g>
</g>
<g>
</g>
<g>
</g>
</svg>
