<?xml version="1.0" encoding="iso-8859-1"?>
<!-- Generator: Adobe Illustrator 19.0.0, SVG Export Plug-In . SVG Version: 6.00 Build 0)  -->
<svg version="1.1" id="Capa_1" xmlns="http://www.w3.org/2000/svg" xmlns:xlink="http://www.w3.org/1999/xlink" x="0px" y="0px"
	 viewBox="0 0 426.667 426.667" style="enable-background:new 0 0 426.667 426.667;" xml:space="preserve">
<g>
	<g>
		<path d="M362.675,64H63.992C28.657,64,0,92.686,0,128.071v170.524c0,35.434,28.65,64.071,63.992,64.071h298.683
			c35.334,0,63.992-28.686,63.992-64.071V128.071C426.667,92.637,398.017,64,362.675,64z M384,298.595
			c0,11.83-9.563,21.405-21.325,21.405H63.992c-11.787,0-21.325-9.545-21.325-21.405V128.071c0-11.83,9.563-21.405,21.325-21.405
			h298.683c11.787,0,21.325,9.545,21.325,21.405V298.595z"/>
	</g>
</g>
<g>
	<g>
		<polygon points="329.396,129.882 212.328,208.926 95.261,129.882 71.385,165.243 212.328,260.408 353.271,165.243 		"/>
	</g>
</g>
<g>
</g>
<g>
</g>
<g>
</g>
<g>
</g>
<g>
</g>
<g>
</g>
<g>
</g>
<g>
</g>
<g>
</g>
<g>
</g>
<g>
</g>
<g>
</g>
<g>
</g>
<g>
</g>
<g>
</g>
</svg>
