<?xml version="1.0" encoding="utf-8"?>
<!-- Generator: Adobe Illustrator 24.2.1, SVG Export Plug-In . SVG Version: 6.00 Build 0)  -->
<svg version="1.1" id="Capa_1" xmlns="http://www.w3.org/2000/svg" xmlns:xlink="http://www.w3.org/1999/xlink" x="0px" y="0px"
	 viewBox="0 0 469.3 469.3" style="enable-background:new 0 0 469.3 469.3;" xml:space="preserve">
<style type="text/css">
	.st0{fill:#FFFFFF;}
</style>
<g>
	<g>
		<path class="st0" d="M64,170.7c-35.3,0-64,28.7-64,64s28.7,64,64,64s64-28.7,64-64S99.3,170.7,64,170.7z"/>
	</g>
</g>
<g>
	<g>
		<path class="st0" d="M234.7,170.7c-35.3,0-64,28.7-64,64s28.7,64,64,64s64-28.7,64-64S270,170.7,234.7,170.7z"/>
	</g>
</g>
<g>
	<g>
		<path class="st0" d="M405.3,170.7c-35.3,0-64,28.7-64,64s28.7,64,64,64s64-28.7,64-64S440.7,170.7,405.3,170.7z"/>
	</g>
</g>
</svg>
