<?xml version="1.0" encoding="utf-8"?>
<!-- Generator: Adobe Illustrator 23.1.1, SVG Export Plug-In . SVG Version: 6.00 Build 0)  -->
<svg version="1.1" id="Layer_1" xmlns="http://www.w3.org/2000/svg" xmlns:xlink="http://www.w3.org/1999/xlink" x="0px" y="0px"
	 viewBox="0 0 54.4 54.4" style="enable-background:new 0 0 54.4 54.4;" xml:space="preserve">
<style type="text/css">
	.st0{fill:#009FDA;}
</style>
<title>new</title>
<g>
	<g id="Layer_1-2">
		<path class="st0" d="M46.4,8H7.9l0,38.3l38.5,0V8z M34.6,37l-7.4-7.4L19.8,37c-0.6,0.6-1.6,0.6-2.1,0l-0.4-0.4
			c-0.6-0.6-0.6-1.6,0-2.1l7.4-7.4l-7.4-7.4c-0.6-0.6-0.6-1.6,0-2.1l0.4-0.4c0.6-0.6,1.6-0.6,2.1,0l7.4,7.4l7.4-7.4
			c0.6-0.6,1.6-0.6,2.1,0l0.4,0.4c0.6,0.6,0.6,1.6,0,2.1l-7.4,7.4l7.4,7.4c0.6,0.6,0.6,1.6,0,2.1L36.6,37
			C36.1,37.7,35.1,37.6,34.6,37z"/>
	</g>
</g>
</svg>
