<?xml version="1.0" encoding="utf-8"?>
<!-- Generator: Adobe Illustrator 23.0.1, SVG Export Plug-In . SVG Version: 6.00 Build 0)  -->
<svg version="1.1" id="Layer_1" xmlns="http://www.w3.org/2000/svg" xmlns:xlink="http://www.w3.org/1999/xlink" x="0px" y="0px"
	 viewBox="0 0 54.4 54.4" style="enable-background:new 0 0 54.4 54.4;" xml:space="preserve">
<style type="text/css">
	.st0{fill:#009FDA;}
</style>
<title>new</title>
<g>
	<g id="Layer_1-2">
		<path class="st0" d="M27.2,0L0,27.2l27.1,27.1l27.2-27.2L27.2,0z M39.4,28.9H28.9v10.4c0,0.8-0.7,1.5-1.5,1.5h-0.5
			c-0.8,0-1.5-0.7-1.5-1.5V28.9H15c-0.8,0-1.5-0.7-1.5-1.5v-0.5c0-0.8,0.7-1.5,1.5-1.5h10.4V15c0-0.8,0.7-1.5,1.5-1.5h0.5
			c0.8,0,1.5,0.7,1.5,1.5v10.4h10.4c0.8,0,1.5,0.7,1.5,1.5v0.5C40.9,28.3,40.2,28.9,39.4,28.9z"/>
	</g>
</g>
</svg>
