<?xml version="1.0" encoding="iso-8859-1"?>
<!-- Generator: Adobe Illustrator 19.0.0, SVG Export Plug-In . SVG Version: 6.00 Build 0)  -->
<svg version="1.1" id="Capa_1" xmlns="http://www.w3.org/2000/svg" xmlns:xlink="http://www.w3.org/1999/xlink" x="0px" y="0px"
	 viewBox="0 0 467.2 467.2" style="enable-background:new 0 0 467.2 467.2;" xml:space="preserve">
<g>
	<g>
		<g>
			<path d="M274.075,84.821h-0.132c0.048,0.007,0.094,0.008,0.14,0.011L274.075,84.821z"/>
			<path d="M424.578,104.285H339.2l-30.554-44.492c-6.709-9.769-21.686-17.638-33.495-17.638H147.726
				c-11.745,0-26.83,7.823-33.55,17.472l-31.1,44.658H42.754C19.059,104.285,0,123.355,0,146.879v235.571
				c0,23.49,19.117,42.594,42.699,42.594h381.801c23.514,0,42.699-19.07,42.699-42.594V146.879
				C467.2,123.389,448.117,104.285,424.578,104.285z M149.188,84.01c-0.036,0.051-0.069,0.1-0.102,0.147L149.188,84.01z
				 M424.501,382.379c-254.556-0.006-381.834,0.018-381.834,0.072c0.022-157,0.051-235.499,0.088-235.499h62.601l43.268-62.13
				h125.32c-0.049-0.171-0.175-0.447-0.469-0.875l0.601,0.875h1.076c-0.461,0-0.751,0.036-1.068,0.011l42.659,62.119h107.792
				C424.516,303.903,424.505,382.379,424.501,382.379z"/>
		</g>
	</g>
</g>
<g>
	<g>
		<path d="M211.2,168.285c-47.128,0-85.333,38.205-85.333,85.333s38.205,85.333,85.333,85.333s85.333-38.205,85.333-85.333
			S258.328,168.285,211.2,168.285z M211.2,296.285c-23.564,0-42.667-19.102-42.667-42.667s19.103-42.667,42.667-42.667
			s42.667,19.103,42.667,42.667S234.764,296.285,211.2,296.285z"/>
	</g>
</g>
<g>
	<g>
		<rect x="339.2" y="189.618" width="42.667" height="42.667"/>
	</g>
</g>
<g>
</g>
<g>
</g>
<g>
</g>
<g>
</g>
<g>
</g>
<g>
</g>
<g>
</g>
<g>
</g>
<g>
</g>
<g>
</g>
<g>
</g>
<g>
</g>
<g>
</g>
<g>
</g>
<g>
</g>
</svg>
