<?xml version="1.0" encoding="iso-8859-1"?>
<!-- Generator: Adobe Illustrator 19.0.0, SVG Export Plug-In . SVG Version: 6.00 Build 0)  -->
<svg version="1.1" id="Capa_1" xmlns="http://www.w3.org/2000/svg" xmlns:xlink="http://www.w3.org/1999/xlink" x="0px" y="0px"
	 viewBox="0 0 384.314 384.314" style="enable-background:new 0 0 384.314 384.314;" xml:space="preserve">
<g>
	<g>
		<path fill="#555" d="M374.667,153.571L230.816,9.72c-16.63-16.63-33.241-11.249-37.11,12.073l-9.848,59.367l-59.816,59.816L64.2,151.054
			c-23.206,3.908-28.471,20.624-11.907,37.188l143.851,143.851c16.63,16.63,33.193,11.364,37.042-12.053l9.87-60.05l59.816-59.816
			l59.869-9.688C385.958,186.729,391.231,170.135,374.667,153.571z M282.45,160.258l-79.269,79.269l-5.542,33.721l-86.783-86.783
			l33.716-5.678l79.137-79.137l5.505-33.19l86.427,86.427L282.45,160.258z"/>
	</g>
</g>
<g>
	<g>

			<rect fill="#555" x="-0.889" y="309.265" transform="matrix(0.7071 -0.7071 0.7071 0.7071 -218.0544 134.7668)" width="109.081" height="42.667"/>
	</g>
</g>
<g>
</g>
<g>
</g>
<g>
</g>
<g>
</g>
<g>
</g>
<g>
</g>
<g>
</g>
<g>
</g>
<g>
</g>
<g>
</g>
<g>
</g>
<g>
</g>
<g>
</g>
<g>
</g>
<g>
</g>
</svg>
