<?xml version="1.0" encoding="iso-8859-1"?>
<!-- Generator: Adobe Illustrator 19.0.0, SVG Export Plug-In . SVG Version: 6.00 Build 0)  -->
<svg version="1.1" id="Capa_1" xmlns="http://www.w3.org/2000/svg" xmlns:xlink="http://www.w3.org/1999/xlink" x="0px" y="0px"
	 viewBox="0 0 405.333 405.333" style="enable-background:new 0 0 405.333 405.333;" xml:space="preserve">
<g>
	<g>
		<path d="M201.786,0c-47.032,0-85.333,38.161-85.333,85.235v42.864c0,47.095,38.205,85.235,85.333,85.235
			c47.032,0,85.333-38.161,85.333-85.235V85.235C287.12,38.14,248.915,0,201.786,0z M244.453,128.099
			c0,23.458-19.147,42.568-42.667,42.568c-23.584,0-42.667-19.057-42.667-42.568V85.235c0-23.458,19.147-42.568,42.667-42.568
			c23.584,0,42.667,19.057,42.667,42.568V128.099z"/>
	</g>
</g>
<g>
	<g>
		<path d="M318.924,264.264c-0.143-0.062-1.319-0.505-2.966-1.114c-2.709-1.002-5.778-2.116-9.153-3.313
			c-9.63-3.416-19.814-6.831-30.126-10.026c-7.793-2.415-15.367-4.612-22.632-6.541c-20.709-5.5-37.866-8.603-51.178-8.603
			c-13.33,0-30.218,2.961-50.369,8.218c-7.681,2.004-15.696,4.312-23.943,6.865c-10.289,3.186-20.421,6.59-29.982,9.996
			c-3.351,1.194-6.397,2.304-9.083,3.304c-1.635,0.608-2.802,1.051-3.449,1.3c-30.109,10.472-53.914,44.204-53.914,76.859v64.124
			h42.667v-64.124c0-14.555,12.369-32.082,25.931-36.805c1.152-0.432,2.169-0.817,3.648-1.368c2.503-0.932,5.361-1.974,8.517-3.098
			c9.032-3.217,18.61-6.436,28.285-9.431c7.665-2.373,15.073-4.506,22.094-6.338c16.917-4.413,30.736-6.836,39.598-6.836
			c8.716,0,22.821,2.552,40.227,7.174c6.668,1.771,13.69,3.807,20.954,6.058c9.72,3.012,19.371,6.248,28.491,9.483
			c3.188,1.131,6.077,2.179,8.61,3.116c1.498,0.554,2.531,0.943,3.04,1.138c14.099,4.993,26.344,22.364,26.344,36.907v64.124h42.667
			v-64.124C373.203,308.61,349.585,275.106,318.924,264.264z"/>
	</g>
</g>
<g>
</g>
<g>
</g>
<g>
</g>
<g>
</g>
<g>
</g>
<g>
</g>
<g>
</g>
<g>
</g>
<g>
</g>
<g>
</g>
<g>
</g>
<g>
</g>
<g>
</g>
<g>
</g>
<g>
</g>
</svg>
