<?xml version="1.0" encoding="iso-8859-1"?>
<!-- Generator: Adobe Illustrator 19.0.0, SVG Export Plug-In . SVG Version: 6.00 Build 0)  -->
<svg version="1.1" id="Capa_1" xmlns="http://www.w3.org/2000/svg" xmlns:xlink="http://www.w3.org/1999/xlink" x="0px" y="0px"
	 viewBox="0 0 512 512" style="enable-background:new 0 0 512 512;" xml:space="preserve">
<g>
	<g>
		<path fill="#555" d="M256.034,42.397H42.633C19.087,42.397,0,61.516,0,85.055v128.016c0,23.56,19.137,42.658,42.633,42.658h42.7v74.131
			c0,11.747,7.443,15.249,16.519,7.906l68.814-55.67v-54.88L128,261.734v-48.67H42.667l-0.001-128h213.333
			c0-0.001,0,14.221,0,42.667h42.667V85.055C298.667,61.496,279.529,42.397,256.034,42.397z"/>
	</g>
</g>
<g>
	<g>
		<path fill="#555" d="M469.367,170.397H255.966c-23.496,0-42.633,19.099-42.633,42.658v128.016c0,23.539,19.087,42.658,42.633,42.658h52.774
			l101.407,82.037c9.076,7.343,16.519,3.841,16.519-7.907V383.73h42.7c23.496,0,42.633-19.099,42.633-42.658V213.055
			C512,189.516,492.913,170.397,469.367,170.397z M384,341.063v48.67l-60.162-48.67H256c0-85.335,0-128.001,0.001-128h213.333
			l-0.001,128H384z"/>
	</g>
</g>
<g>
</g>
<g>
</g>
<g>
</g>
<g>
</g>
<g>
</g>
<g>
</g>
<g>
</g>
<g>
</g>
<g>
</g>
<g>
</g>
<g>
</g>
<g>
</g>
<g>
</g>
<g>
</g>
<g>
</g>
</svg>
