<?xml version="1.0" encoding="utf-8"?>
<!-- Generator: Adobe Illustrator 23.1.1, SVG Export Plug-In . SVG Version: 6.00 Build 0)  -->
<svg version="1.1" id="Capa_1" xmlns="http://www.w3.org/2000/svg" xmlns:xlink="http://www.w3.org/1999/xlink" x="0px" y="0px"
	 viewBox="0 0 513.1 513.1" style="enable-background:new 0 0 513.1 513.1;" xml:space="preserve">
<style type="text/css">
	.st0{fill:#B96AFF;}
</style>
<g>
	<g>
		<g>
			<path class="st0" d="M136.8,194.4c-16.3-23-43.9-23.2-60.2-0.2L-0.1,301.9l31.8,35.9l74.9-105.2l75,106.1l31.9-35.7L136.8,194.4z
				"/>
		</g>
	</g>
	<g>
		<g>
			<path class="st0" d="M149.7,392.1c-11.7,0-21.3-12.1-21.3-26.8V230.9H85.7v134.5c0,44.4,28.7,80.5,64,80.5h277.2v-53.7
				L149.7,392.1L149.7,392.1z"/>
		</g>
	</g>
	<g>
		<g>
			<path class="st0" d="M481,173.3l-75,105.2l-75-106.1l-31.9,35.7l76.7,108.4c16.3,23,43.9,23.2,60.2,0.2L512.7,209L481,173.3z"/>
		</g>
	</g>
	<g>
		<g>
			<path class="st0" d="M362.9,67.2H85.7v53.7h277.2c11.7,0,21.3,12.1,21.3,27v132.3h42.7V147.9C426.8,103.4,398.1,67.2,362.9,67.2z
				"/>
		</g>
	</g>
</g>
</svg>
