<?xml version="1.0" encoding="iso-8859-1"?>
<!-- Generator: Adobe Illustrator 19.0.0, SVG Export Plug-In . SVG Version: 6.00 Build 0)  -->
<svg version="1.1" id="Capa_1" xmlns="http://www.w3.org/2000/svg" xmlns:xlink="http://www.w3.org/1999/xlink" x="0px" y="0px"
	 viewBox="0 0 469.333 469.333" style="enable-background:new 0 0 469.333 469.333;" xml:space="preserve">
<g>
	<g>
		<rect x="21.395" width="42.667" height="469.333"/>
	</g>
</g>
<g>
	<g>
		<path d="M405.227,42.667H149.318c-23.629,0-42.712,19.084-42.712,42.626v85.414c0,23.545,19.123,42.626,42.712,42.626h255.909
			c23.629,0,42.712-19.084,42.712-42.626V85.293C447.939,61.747,428.816,42.667,405.227,42.667z M405.227,170.667
			c-170.636,0-255.955,0.012-255.955,0.036c0.011-56.913,0.026-85.369,0.045-85.369c170.636,0,255.955-0.012,255.955-0.036
			C405.261,142.21,405.246,170.667,405.227,170.667z"/>
	</g>
</g>
<g>
	<g>
		<path d="M277.28,256H149.264c-23.539,0-42.658,19.084-42.658,42.626v85.414c0,23.545,19.099,42.626,42.658,42.626H277.28
			c23.539,0,42.659-19.084,42.659-42.626v-85.414C319.939,275.081,300.84,256,277.28,256z M277.272,384h-128v-85.333h128V384z"/>
	</g>
</g>
<g>
</g>
<g>
</g>
<g>
</g>
<g>
</g>
<g>
</g>
<g>
</g>
<g>
</g>
<g>
</g>
<g>
</g>
<g>
</g>
<g>
</g>
<g>
</g>
<g>
</g>
<g>
</g>
<g>
</g>
</svg>
