<?xml version="1.0" encoding="iso-8859-1"?>
<!-- Generator: Adobe Illustrator 19.0.0, SVG Export Plug-In . SVG Version: 6.00 Build 0)  -->
<svg version="1.1" id="Capa_1" xmlns="http://www.w3.org/2000/svg" xmlns:xlink="http://www.w3.org/1999/xlink" x="0px" y="0px"
	 viewBox="0 0 426.667 426.667" style="enable-background:new 0 0 426.667 426.667;" xml:space="preserve">
<g>
	<g>
		<path d="M42.622,21.333C19.163,21.333,0,40.416,0,63.955v85.378h128v-128H42.622z M85.333,106.667H42.667
			c0.002-28.448-0.012-42.67-0.044-42.667h42.711V106.667z"/>
	</g>
</g>
<g>
	<g>
		<path d="M0,106.667v128h128v-128H0z M85.333,192H42.667v-42.667h42.667V192z"/>
	</g>
</g>
<g>
	<g>
		<path d="M0,192v128h128V192H0z M85.333,277.333H42.667v-42.667h42.667V277.333z"/>
	</g>
</g>
<g>
	<g>
		<path d="M0,277.333v85.378c0,23.459,19.083,42.622,42.622,42.622H128v-128H0z M85.333,362.667
			c-28.448-0.002-42.67,0.012-42.667,0.044V320h42.667V362.667z"/>
	</g>
</g>
<g>
	<g>
		<path d="M384.045,21.333h-85.378v128h128V63.955C426.667,40.416,407.504,21.333,384.045,21.333z M384,106.667h-42.667V64h42.711
			C384.012,63.997,383.998,78.219,384,106.667z"/>
	</g>
</g>
<g>
	<g>
		<path d="M298.667,106.667v128h128v-128H298.667z M384,192h-42.667v-42.667H384V192z"/>
	</g>
</g>
<g>
	<g>
		<path d="M298.667,192v128h128V192H298.667z M384,277.333h-42.667v-42.667H384V277.333z"/>
	</g>
</g>
<g>
	<g>
		<path d="M298.667,277.333v128h85.378c23.54,0,42.622-19.163,42.622-42.622v-85.378H298.667z M384,362.711
			c0.003-0.032-14.219-0.047-42.667-0.044V320H384V362.711z"/>
	</g>
</g>
<g>
	<g>
		<rect x="107.398" y="277.333" width="202.87" height="42.667"/>
	</g>
</g>
<g>
	<g>
		<rect x="106.667" y="106.667" width="202.87" height="42.667"/>
	</g>
</g>
<g>
</g>
<g>
</g>
<g>
</g>
<g>
</g>
<g>
</g>
<g>
</g>
<g>
</g>
<g>
</g>
<g>
</g>
<g>
</g>
<g>
</g>
<g>
</g>
<g>
</g>
<g>
</g>
<g>
</g>
</svg>
