<?xml version="1.0" encoding="iso-8859-1"?>
<!-- Generator: Adobe Illustrator 19.0.0, SVG Export Plug-In . SVG Version: 6.00 Build 0)  -->
<svg version="1.1" id="Capa_1" xmlns="http://www.w3.org/2000/svg" xmlns:xlink="http://www.w3.org/1999/xlink" x="0px" y="0px"
	 viewBox="0 0 447.951 447.951" style="enable-background:new 0 0 447.951 447.951;" xml:space="preserve">
<g>
	<g>
		<path fill="#ea8025" d="M375.128,9.932l-96.353,87.666c-4.825,4.39-16.285,8.843-22.706,8.843H106.611c-47.095,0-85.302,38.278-85.302,85.371
			c0,47.144,38.194,85.36,85.333,85.371v106.783c0,35.327,28.691,63.985,64,63.985h21.354c23.575,0,42.646-19.045,42.646-42.675
			v-85.388h-42.667v85.388c0,0.002-7.111,0.005-21.333,0.008c-11.756,0-21.333-9.566-21.333-21.318V277.133
			c0-23.528-19.104-42.616-42.646-42.616c-23.581,0-42.687-19.114-42.687-42.704c0-23.547,19.122-42.704,42.635-42.704H256.07
			c17.064,0,38.756-8.429,51.42-19.951l76.486-69.591v264.746l-76.591-69.896c-12.576-11.477-34.315-19.899-51.387-19.899h-21.356
			v-42.704h-42.667v85.371h64.022c6.433,0,17.914,4.448,22.626,8.748l96.609,88.165c22.362,20.408,51.409,7.627,51.409-22.689V32.57
			C426.642,2.213,397.521-10.442,375.128,9.932z"/>
	</g>
</g>
<g>
</g>
<g>
</g>
<g>
</g>
<g>
</g>
<g>
</g>
<g>
</g>
<g>
</g>
<g>
</g>
<g>
</g>
<g>
</g>
<g>
</g>
<g>
</g>
<g>
</g>
<g>
</g>
<g>
</g>
</svg>
