<?xml version="1.0" encoding="utf-8"?>
<!-- Generator: Adobe Illustrator 23.1.1, SVG Export Plug-In . SVG Version: 6.00 Build 0)  -->
<svg version="1.1" id="Layer_1" xmlns="http://www.w3.org/2000/svg" xmlns:xlink="http://www.w3.org/1999/xlink" x="0px" y="0px"
	 viewBox="0 0 203.7 193.6" style="enable-background:new 0 0 203.7 193.6;" xml:space="preserve">
<style type="text/css">
	.st0{fill:#FFFFFF;}
	.st1{fill:#F7901E;}
</style>
<title>pen</title>
<g>
	<polygon class="st0" points="39.8,15.9 8.3,113.2 100.6,184.9 193.4,115.8 164.5,12.9 	"/>
	<g>
		<g id="Layer_2-2">
			<path d="M101.7,192.2c-0.2,0-0.4-0.1-0.6-0.2L1.4,117.6c-0.3-0.2-0.4-0.6-0.4-1L30.2,1.4c0.1-0.5,0.5-0.8,1-0.8h142.3
				c0.5,0,0.9,0.3,1,0.8l28.2,116c0.1,0.4-0.1,0.8-0.4,1l-99.9,73.7C102.2,192.2,101.9,192.2,101.7,192.2z M101.7,177.5l84.7-64.1
				l-15.2-67.6c-0.2-0.8-4.5-19.1-24.3-19.1c-9.6,0-14.4,4.6-19.5,9.4c-5.7,5.4-11.6,11-24.4,11c-13,0-20-6-26.2-11.2
				c-5.6-4.7-10.8-9.1-19.7-9.1c-18.5,0-23.9,18.9-23.9,19.1l-16.1,66.9L101.7,177.5z"/>
			<path d="M173.4,1.6l28.2,116l-99.9,73.7L2,116.8L31.1,1.6H173 M103,46.1c-24,0-26.4-20.4-45.9-20.4S32.2,45.6,32.2,45.6L16,113.1
				l85.7,65.7l85.9-65l-15.4-68.2c0,0-4.4-19.9-25.2-19.9S127,46.1,103,46.1 M173.4-0.4H31.1c-0.9,0-1.7,0.6-1.9,1.5L0.1,116.3
				c-0.2,0.8,0.1,1.6,0.7,2.1l99.7,74.5c0.7,0.5,1.7,0.5,2.4,0l100-73.7c0.6-0.5,0.9-1.3,0.8-2.1l-28.2-116
				C175.2,0.2,174.4-0.4,173.4-0.4z M103,48.1c13.2,0,19.5-6,25.1-11.3c5.1-4.9,9.6-9.1,18.8-9.1c19,0,23.3,18.1,23.3,18.3l15.1,67
				l-83.6,63.3l-83.5-63.9l15.9-66.3c0.3-1,5.4-18.4,22.9-18.4c8.5,0,13.4,4.1,19,8.9C82.5,42,89.7,48.1,103,48.1z"/>
			<path d="M142.4,85.9c-10.4,0.1-18.8-8.3-18.9-18.6s8.3-18.8,18.6-18.9c10.4-0.1,18.8,8.3,18.9,18.6v0.1
				C161.1,77.5,152.7,85.9,142.4,85.9z"/>
			<path d="M142.6,49.4c10.4-0.1,18.8,8.9,17.8,19.5c-0.7,7.8-6.7,14.2-14.3,15.7c-11.2,2.1-21-6.4-21.1-17.3v-0.1
				C124.9,57.4,132.8,49.5,142.6,49.4L142.6,49.4 M142.4,47.4c-11.2-0.1-20.3,9.2-19.9,20.6c0.4,9.9,8.4,18.2,18.4,18.9
				c11.5,0.8,21-8.2,21.1-19.6v-0.1C162.1,56.3,153.3,47.5,142.4,47.4z"/>
			<path class="st1" d="M102.2,137.9c-0.3,0-0.6-0.1-0.8-0.4l-27-35.3c-0.3-0.4-0.2-1.1,0.2-1.4c0.2-0.1,0.4-0.2,0.6-0.2h54
				c0.6,0,1,0.4,1,1c0,0.2-0.1,0.4-0.2,0.6l-27,35.3C102.8,137.8,102.5,137.9,102.2,137.9z"/>
			<path class="st1" d="M129.2,101.6l-27,35.3l-27-35.3l53.8,0 M129.2,99.6h-54c-1.1,0-2,0.9-2,2c0,0.4,0.1,0.9,0.4,1.2l27,35.3
				c0.7,0.9,1.9,1,2.8,0.4c0.1-0.1,0.3-0.2,0.4-0.4l27-35.3c0.7-0.9,0.5-2.1-0.4-2.8C130.1,99.8,129.6,99.6,129.2,99.6L129.2,99.6z
				 M129.2,103.1L129.2,103.1z"/>
			<path d="M61.4,85.9C51,86,42.6,77.7,42.5,67.3s8.3-18.8,18.6-18.9S79.9,56.7,80,67.1v0.1C80,77.5,71.7,85.9,61.4,85.9z"/>
			<path d="M61.6,49.4c10.4-0.1,18.8,8.9,17.8,19.5c-0.7,7.8-6.7,14.2-14.3,15.7c-11.2,2.1-21-6.4-21.1-17.3v-0.1
				C43.9,57.4,51.8,49.5,61.6,49.4L61.6,49.4 M61.4,47.4C50.5,47.3,41.6,56.1,41.5,67c-0.1,11,8.7,19.9,19.6,19.9S80.9,78.2,81,67.3
				v-0.1C81,56.3,72.2,47.5,61.4,47.4z"/>
		</g>
	</g>
</g>
</svg>
