<?xml version="1.0" encoding="utf-8"?>
<!-- Generator: Adobe Illustrator 23.0.1, SVG Export Plug-In . SVG Version: 6.00 Build 0)  -->
<svg version="1.1" id="Layer_1" xmlns="http://www.w3.org/2000/svg" xmlns:xlink="http://www.w3.org/1999/xlink" x="0px" y="0px"
	 viewBox="0 0 203.7 193.6" style="enable-background:new 0 0 203.7 193.6;" xml:space="preserve">
<style type="text/css">
	.st0{fill:#F7901E;}
</style>
<title>pen</title>
<g>
	<g id="Layer_2-2">
		<path d="M101.7,192.6c-0.2,0-0.4-0.1-0.6-0.2L1.4,118c-0.3-0.2-0.4-0.6-0.4-1L30.2,1.8c0.1-0.5,0.5-0.8,1-0.8h142.3
			c0.5,0,0.9,0.3,1,0.8l28.2,116c0.1,0.4-0.1,0.8-0.4,1l-99.9,73.7C102.2,192.6,101.9,192.6,101.7,192.6z M101.7,177.5l84.7-64.1
			l-15.2-67.6c-0.2-0.8-4.5-19.1-24.3-19.1c-9.6,0-14.4,4.6-19.5,9.4c-5.7,5.4-11.6,11-24.4,11c-13,0-20-6-26.2-11.2
			c-5.6-4.7-10.8-9.1-19.7-9.1c-18.5,0-23.9,18.9-23.9,19.1l-16.1,66.9L101.7,177.5z"/>
		<path d="M173.4,2l28.2,116l-99.9,73.7L2,117.2L31.1,2H173.4 M103,46.1c-24,0-26.4-20.4-45.9-20.4S32.2,45.6,32.2,45.6L16,113.1
			l85.7,65.7l85.9-65l-15.4-68.2c0,0-4.4-19.9-25.2-19.9S127,46.1,103,46.1 M173.4,0H31.1c-0.9,0-1.7,0.6-1.9,1.5L0.1,116.7
			c-0.2,0.8,0.1,1.6,0.7,2.1l99.7,74.5c0.7,0.5,1.7,0.5,2.4,0l100-73.7c0.6-0.5,0.9-1.3,0.8-2.1l-28.2-116
			C175.2,0.6,174.4,0,173.4,0z M103,48.1c13.2,0,19.5-6,25.1-11.3c5.1-4.9,9.6-9.1,18.8-9.1c19,0,23.3,18.1,23.3,18.3l15.1,67
			l-83.6,63.3l-83.5-63.9l15.9-66.3c0.3-1,5.4-18.4,22.9-18.4c8.5,0,13.4,4.1,19,8.9C82.5,42,89.7,48.1,103,48.1z"/>
		<path d="M142.7,85.9c-10.4,0.1-18.8-8.3-18.9-18.6s8.3-18.8,18.6-18.9c10.4-0.1,18.8,8.3,18.9,18.6c0,0,0,0.1,0,0.1
			C161.4,77.5,153,85.9,142.7,85.9z"/>
		<path d="M142.7,49.4c9.8-0.1,17.8,7.8,17.9,17.6s-7.8,17.8-17.6,17.9c-9.8,0.1-17.8-7.8-17.9-17.6c0,0,0-0.1,0-0.1
			C125,57.4,132.9,49.5,142.7,49.4C142.7,49.4,142.7,49.4,142.7,49.4 M142.7,47.4c-10.9-0.1-19.8,8.7-19.9,19.6
			c-0.1,10.9,8.7,19.8,19.6,19.9s19.8-8.7,19.9-19.6c0,0,0-0.1,0-0.1C162.4,56.3,153.6,47.5,142.7,47.4z"/>
		<path class="st0" d="M102.2,137.4c-0.3,0-0.6-0.1-0.8-0.4l-27-35.3c-0.3-0.4-0.2-1.1,0.2-1.4c0.2-0.1,0.4-0.2,0.6-0.2h54
			c0.6,0,1,0.4,1,1c0,0.2-0.1,0.4-0.2,0.6L103,137C102.8,137.3,102.5,137.4,102.2,137.4z"/>
		<path class="st0" d="M129.2,101.1l-27,35.3l-27-35.3L129.2,101.1 M129.2,99.1h-54c-1.1,0-2,0.9-2,2c0,0.4,0.1,0.9,0.4,1.2l27,35.3
			c0.7,0.9,1.9,1,2.8,0.4c0.1-0.1,0.3-0.2,0.4-0.4l27-35.3c0.7-0.9,0.5-2.1-0.4-2.8C130.1,99.3,129.6,99.1,129.2,99.1L129.2,99.1z
			 M129.2,103.1L129.2,103.1z"/>
		<path d="M61.5,85.9C51.1,86,42.7,77.7,42.6,67.3s8.3-18.8,18.6-18.9S80,56.7,80.1,67.1c0,0,0,0.1,0,0.1
			C80.1,77.5,71.8,85.9,61.5,85.9z"/>
		<path d="M61.5,49.4c9.8-0.1,17.8,7.8,17.9,17.6s-7.8,17.8-17.6,17.9s-17.8-7.8-17.9-17.6c0,0,0-0.1,0-0.1
			C43.8,57.4,51.7,49.5,61.5,49.4C61.5,49.4,61.5,49.4,61.5,49.4 M61.5,47.4c-10.9-0.1-19.8,8.7-19.9,19.6
			C41.5,78,50.3,86.9,61.2,86.9S81,78.2,81.1,67.3c0,0,0-0.1,0-0.1C81.1,56.3,72.3,47.5,61.5,47.4z"/>
	</g>
</g>
</svg>
